<?xml version="1.0" encoding="utf-8"?>
<!-- Generator: Adobe Illustrator 21.1.0, SVG Export Plug-In . SVG Version: 6.00 Build 0)  -->
<svg version="1.1" id="Layer_1" xmlns="http://www.w3.org/2000/svg" xmlns:xlink="http://www.w3.org/1999/xlink" x="0px" y="0px"
	 viewBox="0 0 47.3 56.4" style="enable-background:new 0 0 47.3 56.4;" xml:space="preserve">
<style type="text/css">
	.st0{fill:#007D43;}
	.st1{fill:#FFF1C0;}
	.st2{fill:#FFFFFF;}
	.st3{fill:#49965F;}
	.st4{fill:#05894F;}
	.st5{fill:#3D925A;}
	.st6{fill:#7DAB76;}
	.st7{fill:#FFDC09;}
	.st8{fill:#FFEB98;}
</style>
<g>
	<g>
		<g>
			<g>
				<path class="st0" d="M22.3,53.2l-0.4-0.1c-0.2-0.1-5.7-2-11.1-6.6c-6.5-5.6-7.2-14.2-7.2-17.5v-21l0.6-0.3
					c5.1-2.5,10.9-3.7,18.1-3.7c7.2,0,12.9,1.2,18.1,3.7L41,7.9v21c0,3.4-0.7,11.9-7.2,17.5c-5.4,4.7-10.9,6.6-11.1,6.6L22.3,53.2z"
					/>
				<path class="st1" d="M22.3,6.1c-6.6,0-11.8,1-16.5,3.2V23c1.9-1.1,3.5-2.5,4.8-3.9c1.5,1.7,3.5,3.2,5.9,4.5
					c2.4-1.2,4.4-2.8,5.9-4.5c1.5,1.7,3.5,3.2,5.9,4.5c2.4-1.2,4.4-2.8,5.9-4.5c1.2,1.4,2.8,2.8,4.8,3.9V9.2
					C34.1,7.1,28.9,6.1,22.3,6.1z M30.6,17c-1.9,0-3.2-0.3-5-0.7c-0.3-0.1-0.7-0.1-1-0.1c-0.7,0-1.4,0.2-1.9,0.4
					c-0.2,0.1-0.3,0.2-0.4,0.2c-0.1-0.1-0.3-0.2-0.4-0.2c-0.5-0.2-1.2-0.4-1.9-0.4c-0.3,0-0.6,0-1,0.1C17.1,16.8,15.8,17,14,17
					c-0.3,0-0.5,0-0.8,0l0.6-6.3c0.3,0,0.6,0,0.8,0l0.2-2l0.6,0c0.2,0,0.4,0,0.6,0c0.7,0,1.2-0.1,1.9-0.2c0.4-0.1,0.8-0.2,1.2-0.3
					c0.2-0.1,0.4-0.1,0.7-0.2c0.8-0.2,1.6-0.1,2.3,0.3c0.1,0.1,0.3,0.2,0.4,0.3c0.1-0.1,0.3-0.2,0.4-0.3c0.7-0.4,1.5-0.5,2.2-0.3
					c0.3,0.1,0.5,0.1,0.7,0.2c0.4,0.1,0.8,0.2,1.2,0.3c0.8,0.2,1.6,0.2,2.5,0.2l0.6,0l0.2,2c0.3,0,0.5,0,0.8,0l0.6,6.3
					C31.2,17,30.9,17,30.6,17z"/>
				<g>
					<path class="st2" d="M19.4,14.5L19.4,14.5c-1.6,0.4-2.6,0.7-4.1,0.7l0.4-5.2c0.8,0,1.4-0.1,2.2-0.2c0.4-0.1,0.8-0.2,1.3-0.3
						c0.2-0.1,0.4-0.1,0.7-0.2c0.5-0.1,1-0.1,1.4,0.2c0.2,0.1,0.3,0.2,0.4,0.3v4.9C21,14.4,20.2,14.4,19.4,14.5z"/>
					<path class="st2" d="M25.2,14.5c-0.8-0.2-1.5-0.2-2.3,0.1V9.7c0.1-0.1,0.2-0.2,0.4-0.3c0.4-0.2,0.9-0.3,1.4-0.2
						c0.2,0.1,0.5,0.1,0.7,0.2c0.5,0.1,0.9,0.2,1.3,0.3C27.3,9.9,28,10,28.7,10c0,0,0.1,0,0.1,0l0.4,5.2
						C27.7,15.2,26.7,14.9,25.2,14.5z"/>
				</g>
				<g>
					<path class="st3" d="M22.3,25.7c2.1-0.5,4.1-1.2,5.9-2.1c-2.4-1.2-4.4-2.8-5.9-4.5c-1.5,1.7-3.5,3.2-5.9,4.5
						C18.2,24.5,20.1,25.2,22.3,25.7z"/>
					<path class="st4" d="M10.6,25.7c1.8,0.4,3.8,0.7,5.9,0.7c2.1,0,4-0.2,5.8-0.6c-2.1-0.5-4.1-1.2-5.9-2.1
						C14.7,24.5,12.7,25.2,10.6,25.7z"/>
					<path class="st4" d="M22.3,25.7c1.8,0.4,3.8,0.6,5.8,0.6c2.1,0,4-0.2,5.9-0.7c-2.1-0.5-4.1-1.2-5.9-2.1
						C26.4,24.5,24.4,25.2,22.3,25.7z"/>
					<path class="st5" d="M5.8,26.3c1.7-0.1,3.3-0.3,4.8-0.6c-1.7-0.4-3.3-0.9-4.8-1.6V26.3z"/>
					<path class="st6" d="M5.8,23v1.1c1.5,0.7,3.1,1.2,4.8,1.6c2.1-0.5,4.1-1.2,5.8-2.1c-2.4-1.2-4.4-2.8-5.9-4.5
						C9.3,20.5,7.7,21.9,5.8,23z"/>
					<path class="st5" d="M38.8,24.1c-1.5,0.7-3.1,1.2-4.8,1.6c1.5,0.3,3.1,0.6,4.8,0.6V24.1z"/>
					<path class="st6" d="M38.8,24.1V23c-1.9-1.1-3.5-2.5-4.8-3.9c-1.5,1.7-3.5,3.2-5.9,4.5c1.7,0.9,3.7,1.6,5.8,2.1
						C35.7,25.3,37.3,24.8,38.8,24.1z"/>
				</g>
				<path class="st7" d="M36.8,29.3c-0.9-0.6-1.7-1.1-2.8-1.1c-1.1,0-1.9,0.5-2.8,1.1c-0.9,0.6-1.8,1.2-3.1,1.2
					c-1.3,0-2.2-0.6-3.1-1.2c-0.9-0.6-1.7-1.1-2.8-1.1c-1.1,0-1.9,0.5-2.8,1.1c-0.9,0.6-1.8,1.2-3.1,1.2c-1.3,0-2.2-0.6-3.1-1.2
					c-0.9-0.6-1.7-1.1-2.8-1.1c-1.1,0-1.9,0.5-2.8,1.1c-0.6,0.4-1.2,0.8-2,1c0,0.8,0.1,1.8,0.3,2.9c0.5-0.2,1-0.5,1.5-0.8
					c0.9-0.6,1.8-1.1,3-1.1c1.2,0,2.1,0.6,3,1.1c0.9,0.6,1.8,1.1,2.9,1.1c1.2,0,2-0.5,2.9-1.1c0.9-0.6,1.8-1.1,3-1.1
					c1.2,0,2.1,0.6,3,1.1c0.9,0.6,1.8,1.1,2.9,1.1c1.2,0,2-0.5,2.9-1.1c0.9-0.6,1.8-1.1,3-1.1c1.2,0,2.1,0.6,3,1.1
					c0.5,0.3,0.9,0.6,1.5,0.8c0.2-1.1,0.3-2,0.3-2.9C38,30.1,37.4,29.7,36.8,29.3z"/>
			</g>
			<g>
				<path class="st8" d="M24,50.1v-1.3l-1.5,1.5l-1.3-1.3v-2l1.3,1.3l1.5-1.5v-2.2l-1.5,1.5l-1.3-1.3v-2.1l1.3,1.3l1.5-1.5v-2.3
					l-1.5,1.5l-1.3-1.3v-1.9l1.3,1.2l2.2-2.1l-2.3-2l-2.6,2.2v11.8c1.2,0.6,2.1,1,2.6,1.1C22.6,50.7,23.2,50.5,24,50.1z"/>
				<path class="st8" d="M18.1,44.9l-1.5,1.6l-1.3-1.3v-2.1l1.3,1.3l1.5-1.6v-2.4L16.6,42l-1.3-1.3v-2.1l1.3,1.2l2.2-2.1l-2.3-2
					l-2.6,2.2v8.2c1.5,1.1,3,2.1,4.2,2.8V44.9z"/>
				<path class="st8" d="M28.3,39.8l2.2-2.1l-2.3-2l-2.6,2.2v11.4c1.2-0.7,2.7-1.5,4.2-2.6v-1.8l-1.5,1.6L27,45.2v-2.1l1.3,1.3
					l1.5-1.6v-2.4L28.3,42L27,40.7v-2.1L28.3,39.8z"/>
				<path class="st8" d="M34.2,39.8l2.2-2.1l-2.3-2l-2.6,2.2v7.6c0.3-0.2,0.6-0.5,0.9-0.7c1.4-1.2,2.5-2.6,3.4-4v-0.3L34.2,42
					l-1.3-1.3v-2.1L34.2,39.8z"/>
				<path class="st8" d="M10.7,39.8l2.2-2.1l-2.3-2L8,37.9v1.3c1,2,2.3,3.9,4.2,5.6v-4.3L10.7,42l-1.3-1.3v-2.1L10.7,39.8z"/>
			</g>
		</g>
	</g>
</g>
</svg>
