<?xml version="1.0" encoding="utf-8"?>
<!-- Generator: Adobe Illustrator 24.1.3, SVG Export Plug-In . SVG Version: 6.00 Build 0)  -->
<svg version="1.1" id="Layer_1" xmlns="http://www.w3.org/2000/svg" xmlns:xlink="http://www.w3.org/1999/xlink" x="0px" y="0px"
	 viewBox="0 0 372 65" style="enable-background:new 0 0 372 65;" xml:space="preserve">
<style type="text/css">
	.st0{fill:none;}
	.st1{fill:#007D43;}
	.st2{fill:#FFF1C0;}
	.st3{fill:#FFFFFF;}
	.st4{fill:#49965F;}
	.st5{fill:#05894F;}
	.st6{fill:#3D925A;}
	.st7{fill:#7DAB76;}
	.st8{fill:#FFDC09;}
	.st9{fill:#FFEB98;}
</style>
<rect x="-29.5" y="-24.5" class="st0" width="433.4" height="118.1"/>
<g>
	<g>
		<path class="st1" d="M66.7,29.4c-3.4,0-6-2.3-6-5.7V12.9h3.2v10.6c0,1.9,1.1,3,2.8,3c1.7,0,2.9-1.1,2.9-3V12.9h3.2v10.8
			C72.7,27.1,70,29.4,66.7,29.4z"/>
		<path class="st1" d="M86.3,29.3l-6.5-10v10h-3.2V12.9h2.9l6.5,10v-10h3.2v16.4H86.3z"/>
		<path class="st1" d="M93.2,29.3V12.9h3.2v16.4H93.2z"/>
		<path class="st1" d="M106.8,29.3h-2.4L99,12.9h3.3l3.3,10.7l3.3-10.7h3.3L106.8,29.3z"/>
		<path class="st1" d="M114.9,29.3V12.9h10.8v2.9h-7.6v3.8h6.5v2.9h-6.5v4h7.6v2.9L114.9,29.3L114.9,29.3z"/>
		<path class="st1" d="M137.8,29.3l-3.2-6.5h-2.3v6.5h-3.2V12.9h6.4c3.3,0,5.3,2.3,5.3,5c0,2.3-1.4,3.7-3,4.3l3.7,7.1H137.8z
			 M135.3,15.8h-3v4.3h3c1.4,0,2.3-0.9,2.3-2.2C137.7,16.7,136.7,15.8,135.3,15.8z"/>
		<path class="st1" d="M148.9,29.4c-2.5,0-4.4-0.5-6-2.2l2.1-2.1c1,1,2.4,1.4,4,1.4c1.9,0,2.9-0.7,2.9-2c0-0.6-0.2-1.1-0.5-1.4
			s-0.7-0.5-1.4-0.6l-2-0.3c-1.4-0.2-2.4-0.6-3.2-1.4c-0.8-0.8-1.2-1.8-1.2-3.2c0-2.9,2.2-5,5.7-5c2.3,0,3.9,0.6,5.3,1.9l-2,2
			c-1-1-2.3-1.1-3.4-1.1c-1.7,0-2.5,0.9-2.5,2.1c0,0.4,0.1,0.9,0.5,1.2c0.3,0.3,0.9,0.6,1.5,0.6l1.9,0.3c1.5,0.2,2.4,0.6,3.1,1.3
			c0.9,0.8,1.3,2,1.3,3.5C155,27.6,152.3,29.4,148.9,29.4z"/>
		<path class="st1" d="M158.2,29.3V12.9h3.2v16.4H158.2z"/>
		<path class="st1" d="M171.8,15.8v13.5h-3.2V15.8h-4.3v-2.9h11.8v2.9H171.8z"/>
		<path class="st1" d="M185.8,22.6v6.7h-3.2v-6.7l-4.9-9.7h3.5l3.1,6.6l3-6.6h3.5L185.8,22.6z"/>
		<path class="st1" d="M208.8,27.6c-1.1,1.1-2.6,1.8-4.4,1.8c-1.9,0-3.3-0.6-4.4-1.8c-1.7-1.7-1.6-3.7-1.6-6.5s0-4.9,1.6-6.5
			c1.1-1.1,2.6-1.8,4.4-1.8c1.9,0,3.3,0.6,4.4,1.8c1.7,1.7,1.6,3.7,1.6,6.5C210.5,23.9,210.5,26,208.8,27.6z M206.5,16.5
			c-0.5-0.5-1.2-0.9-2-0.9c-0.9,0-1.6,0.3-2.1,0.9c-0.6,0.7-0.8,1.4-0.8,4.6s0.2,3.9,0.8,4.6c0.5,0.5,1.2,0.9,2.1,0.9s1.6-0.3,2-0.9
			c0.6-0.7,0.8-1.4,0.8-4.6S207.1,17.2,206.5,16.5z"/>
		<path class="st1" d="M216.8,15.8v4h6.5v2.9h-6.5v6.6h-3.2V12.9h10.8v2.9H216.8z"/>
		<path class="st1" d="M241.6,29.3l-1-2.9h-5.8l-1,2.9h-3.3l6-16.4h2.5l6,16.4H241.6z M237.7,17.7l-2.1,6h4.1L237.7,17.7z"/>
		<path class="st1" d="M247.6,29.3V12.9h3.2v13.5h7.4v2.9H247.6z"/>
		<path class="st1" d="M268.1,29.3h-6.9V12.9h6.6c3.2,0,5.1,1.8,5.1,4.6c0,1.8-1.2,3-2,3.4c1,0.5,2.3,1.5,2.3,3.7
			C273.1,27.6,271,29.3,268.1,29.3z M267.5,15.8h-3.1v3.8h3.1c1.4,0,2.1-0.8,2.1-1.9C269.7,16.5,268.9,15.8,267.5,15.8z M267.7,22.4
			h-3.3v4h3.3c1.4,0,2.1-0.9,2.1-2C269.9,23.3,269.2,22.4,267.7,22.4z"/>
		<path class="st1" d="M276.6,29.3V12.9h10.8v2.9h-7.6v3.8h6.5v2.9h-6.5v4h7.6v2.9L276.6,29.3L276.6,29.3z"/>
		<path class="st1" d="M299.4,29.3l-3.2-6.5H294v6.5h-3.2V12.9h6.4c3.3,0,5.3,2.3,5.3,5c0,2.3-1.4,3.7-3,4.3l3.7,7.1H299.4z
			 M297,15.8h-3v4.3h3c1.4,0,2.3-0.9,2.3-2.2C299.3,16.7,298.4,15.8,297,15.8z"/>
		<path class="st1" d="M312.1,15.8v13.5h-3.2V15.8h-4.3v-2.9h11.8v2.9H312.1z"/>
		<path class="st1" d="M327.4,29.3l-1-2.9h-5.8l-1,2.9h-3.3l6-16.4h2.5l6,16.4H327.4z M323.6,17.7l-2.1,6h4.1L323.6,17.7z"/>
	</g>
	<g>
		<path class="st1" d="M68.5,56.2h-6.9V38.4h6.7c3.1,0,5.2,1.8,5.2,4.7c0,1.9-1.1,3.3-2.6,3.9c1.7,0.6,2.9,2.1,2.9,4.2
			C73.8,54.5,71.6,56.2,68.5,56.2z M68.1,40.1h-4.6v6.2h4.6c2,0,3.5-1,3.5-3.1S70.1,40.1,68.1,40.1z M68.3,48h-4.8v6.5h4.8
			c2.2,0,3.6-1.3,3.6-3.3S70.5,48,68.3,48z"/>
		<path class="st1" d="M77.8,56.2V38.4h1.9v17.8H77.8z"/>
		<path class="st1" d="M91.2,56.2h-6.9V38.4H91c3.1,0,5.2,1.8,5.2,4.7c0,1.9-1.1,3.3-2.6,3.9c1.7,0.6,2.9,2.1,2.9,4.2
			C96.5,54.5,94.3,56.2,91.2,56.2z M90.8,40.1h-4.6v6.2h4.6c2,0,3.5-1,3.5-3.1S92.8,40.1,90.8,40.1z M91,48h-4.8v6.5H91
			c2.2,0,3.6-1.3,3.6-3.3S93.2,48,91,48z"/>
		<path class="st1" d="M100.4,56.2V38.4h1.9v16.1h9.1v1.7L100.4,56.2L100.4,56.2z"/>
		<path class="st1" d="M114.7,56.2V38.4h1.9v17.8H114.7z"/>
		<path class="st1" d="M131.3,54.6c-1.1,1.1-2.6,1.8-4.4,1.8s-3.3-0.7-4.4-1.8c-1.7-1.7-1.8-3.2-1.8-7.3c0-4.1,0.1-5.6,1.8-7.3
			c1.1-1.1,2.6-1.7,4.4-1.7s3.3,0.6,4.4,1.7c1.7,1.7,1.8,3.2,1.8,7.3C133.1,51.4,133,52.9,131.3,54.6z M130,41.2
			c-0.8-0.8-1.9-1.2-3.1-1.2s-2.2,0.4-3.1,1.2c-1.1,1.1-1.2,2.4-1.2,6.1c0,3.6,0.1,4.9,1.2,6.1c0.8,0.8,1.9,1.2,3.1,1.2
			s2.2-0.4,3.1-1.2c1.1-1.1,1.2-2.4,1.2-6.1C131.2,43.7,131.1,42.4,130,41.2z"/>
		<path class="st1" d="M142.5,40.1v16.1h-1.9V40.1h-5.1v-1.7h12.2v1.7H142.5z"/>
		<path class="st1" d="M161.2,56.2v-8.1h-8.4v8.1h-1.9V38.4h1.9v8h8.4v-8h1.9v17.8H161.2z"/>
		<path class="st1" d="M167.8,56.2V38.4h11v1.7h-9.1v6.3h7.8v1.7h-7.8v6.4h9.1v1.7L167.8,56.2L167.8,56.2z M172.6,36.7l-2.6-3.8h2.1
			l2.3,3.8H172.6z"/>
		<path class="st1" d="M192.6,54l1.9,1.9l-1.1,1.2l-2-2c-1,0.8-2.3,1.2-3.8,1.2c-1.8,0-3.3-0.7-4.4-1.8c-1.7-1.7-1.8-3.2-1.8-7.3
			c0-4.1,0.1-5.6,1.8-7.3c1.1-1.1,2.6-1.7,4.4-1.7s3.3,0.6,4.4,1.7c1.7,1.7,1.8,3.2,1.8,7.3C193.9,50.9,193.8,52.5,192.6,54z
			 M190.7,41.2c-0.8-0.8-1.9-1.2-3.1-1.2s-2.3,0.4-3.1,1.2c-1.1,1.1-1.2,2.4-1.2,6.1c0,3.6,0.1,4.9,1.2,6.1c0.8,0.8,1.9,1.2,3.1,1.2
			c0.9,0,1.8-0.2,2.5-0.8l-2.2-2.2l1.1-1.2l2.1,2.2c0.7-1,0.7-2.4,0.7-5.3C192,43.7,191.8,42.4,190.7,41.2z"/>
		<path class="st1" d="M203.9,56.4c-3.6,0-6.2-2.5-6.2-6V38.5h1.9v11.8c0,2.7,1.7,4.5,4.3,4.5c2.6,0,4.3-1.8,4.3-4.5V38.5h1.9v11.9
			C210.1,53.9,207.5,56.4,203.9,56.4z"/>
		<path class="st1" d="M214.6,56.2V38.4h11v1.7h-9.1v6.3h7.8v1.7h-7.8v6.4h9.1v1.7L214.6,56.2L214.6,56.2z"/>
		<path class="st1" d="M240.1,56.4c-2.6,0-4.4-0.7-6.1-2.3l1.3-1.3c1.5,1.5,2.8,1.9,4.8,1.9c2.6,0,4.2-1.2,4.2-3.3
			c0-1-0.3-1.7-0.9-2.2c-0.5-0.5-1-0.7-2.3-0.9L239,48c-1.4-0.2-2.4-0.6-3.2-1.3c-0.9-0.8-1.4-1.9-1.4-3.3c0-3,2.2-5,5.7-5
			c2.3,0,3.8,0.6,5.3,1.9l-1.2,1.2c-1.1-1-2.3-1.5-4.1-1.5c-2.4,0-3.8,1.3-3.8,3.3c0,0.9,0.2,1.6,0.8,2.1c0.5,0.5,1.4,0.8,2.3,0.9
			l2.1,0.3c1.7,0.2,2.4,0.5,3.2,1.3c0.9,0.8,1.5,2,1.5,3.5C246.3,54.4,243.8,56.4,240.1,56.4z"/>
		<path class="st1" d="M260.8,56.2l-1.4-4h-7.8l-1.4,4h-2l6.5-17.8h1.6l6.5,17.8H260.8z M255.5,41.1l-3.3,9.4h6.6L255.5,41.1z"/>
		<path class="st1" d="M265.9,56.2V38.4h1.9v17.8H265.9z"/>
		<path class="st1" d="M283.7,56.2l-9.4-14.3v14.3h-1.9V38.4h1.8l9.4,14.2V38.4h1.9v17.8H283.7z"/>
		<path class="st1" d="M295.8,40.1v16.1h-1.9V40.1h-5.1v-1.7H301v1.7H295.8z"/>
		<path class="st1" d="M301.3,48.2v-1.7h6.8v1.7H301.3z"/>
		<path class="st1" d="M312.2,56.4c-1.7,0-3-0.5-4.1-1.6l1.3-1.3c0.6,0.7,1.3,1.2,2.8,1.2c2.3,0,3.6-1.5,3.6-4.1V38.5h1.9v12.4
			C317.7,54.2,315.4,56.4,312.2,56.4z"/>
		<path class="st1" d="M322.2,56.2V38.4h11v1.7h-9.1v6.3h7.8v1.7h-7.8v6.4h9.1v1.7L322.2,56.2L322.2,56.2z"/>
		<path class="st1" d="M348.4,56.2l-1.4-4h-7.8l-1.4,4h-2l6.5-17.8h1.6l6.5,17.8H348.4z M343.1,41.1l-3.3,9.4h6.6L343.1,41.1z"/>
		<path class="st1" d="M364.8,56.2l-9.4-14.3v14.3h-1.9V38.4h1.8l9.4,14.2V38.4h1.9v17.8H364.8z"/>
	</g>
	<g>
		<g>
			<g>
				<path class="st1" d="M26.6,58.2l-0.4-0.1c-0.2-0.1-5.7-2-11.1-6.6C8.6,45.9,7.9,37.3,7.9,34V13l0.6-0.3C13.6,10.2,19.4,9,26.6,9
					c7.2,0,12.9,1.2,18.1,3.7l0.6,0.3v21c0,3.4-0.7,11.9-7.2,17.5c-5.4,4.7-10.9,6.6-11.1,6.6L26.6,58.2z"/>
				<path class="st2" d="M26.6,11.1c-6.6,0-11.8,1-16.5,3.2V28c1.9-1.1,3.5-2.5,4.8-3.9c1.5,1.7,3.5,3.2,5.9,4.5
					c2.4-1.2,4.4-2.8,5.9-4.5c1.5,1.7,3.5,3.2,5.9,4.5c2.4-1.2,4.4-2.8,5.9-4.5c1.2,1.4,2.8,2.8,4.8,3.9V14.3
					C38.4,12.1,33.2,11.1,26.6,11.1z M35,22.1c-1.9,0-3.2-0.3-5-0.7c-0.3-0.1-0.7-0.1-1-0.1c-0.7,0-1.4,0.2-1.9,0.4
					c-0.2,0.1-0.3,0.2-0.4,0.2c-0.1-0.1-0.3-0.2-0.4-0.2c-0.5-0.2-1.2-0.4-1.9-0.4c-0.3,0-0.6,0-1,0.1c-1.9,0.4-3.2,0.7-5.1,0.7
					c-0.3,0-0.5,0-0.8,0l0.6-6.3c0.3,0,0.6,0,0.8,0l0.2-2h0.6c0.2,0,0.4,0,0.6,0c0.7,0,1.2-0.1,1.9-0.2c0.4-0.1,0.8-0.2,1.2-0.3
					c0.2-0.1,0.4-0.1,0.7-0.2c0.8-0.2,1.6-0.1,2.3,0.3c0.1,0.1,0.3,0.2,0.4,0.3c0.1-0.1,0.3-0.2,0.4-0.3c0.7-0.4,1.5-0.5,2.2-0.3
					c0.3,0.1,0.5,0.1,0.7,0.2c0.4,0.1,0.8,0.2,1.2,0.3c0.8,0.2,1.6,0.2,2.5,0.2h0.6l0.2,2c0.3,0,0.5,0,0.8,0l0.6,6.3
					C35.5,22.1,35.2,22.1,35,22.1z"/>
				<g>
					<path class="st3" d="M23.8,19.6L23.8,19.6c-1.6,0.4-2.6,0.7-4.1,0.7l0.4-5.2c0.8,0,1.4-0.1,2.2-0.2c0.4-0.1,0.8-0.2,1.3-0.3
						c0.2-0.1,0.4-0.1,0.7-0.2c0.5-0.1,1-0.1,1.4,0.2c0.2,0.1,0.3,0.2,0.4,0.3v4.9C25.3,19.4,24.5,19.4,23.8,19.6z"/>
					<path class="st3" d="M29.5,19.6c-0.8-0.2-1.5-0.2-2.3,0.1v-4.9c0.1-0.1,0.2-0.2,0.4-0.3c0.4-0.2,0.9-0.3,1.4-0.2
						c0.2,0.1,0.5,0.1,0.7,0.2c0.5,0.1,0.9,0.2,1.3,0.3c0.7,0.2,1.4,0.2,2.1,0.2h0.1l0.4,5.2C32.1,20.2,31,20,29.5,19.6z"/>
				</g>
				<g>
					<path class="st4" d="M26.6,30.7c2.1-0.5,4.1-1.2,5.9-2.1c-2.4-1.2-4.4-2.8-5.9-4.5c-1.5,1.7-3.5,3.2-5.9,4.5
						C22.5,29.5,24.5,30.2,26.6,30.7z"/>
					<path class="st5" d="M14.9,30.7c1.8,0.4,3.8,0.7,5.9,0.7c2.1,0,4-0.2,5.8-0.6c-2.1-0.5-4.1-1.2-5.9-2.1
						C19,29.5,17,30.2,14.9,30.7z"/>
					<path class="st5" d="M26.6,30.7c1.8,0.4,3.8,0.6,5.8,0.6c2.1,0,4-0.2,5.9-0.7c-2.1-0.5-4.1-1.2-5.9-2.1
						C30.7,29.5,28.8,30.2,26.6,30.7z"/>
					<path class="st6" d="M10.1,31.3c1.7-0.1,3.3-0.3,4.8-0.6c-1.7-0.4-3.3-0.9-4.8-1.6V31.3z"/>
					<path class="st7" d="M10.1,28v1.1c1.5,0.7,3.1,1.2,4.8,1.6c2.1-0.5,4.1-1.2,5.8-2.1c-2.4-1.2-4.4-2.8-5.9-4.5
						C13.7,25.5,12,26.9,10.1,28z"/>
					<path class="st6" d="M43.1,29.1c-1.5,0.7-3.1,1.2-4.8,1.6c1.5,0.3,3.1,0.6,4.8,0.6V29.1z"/>
					<path class="st7" d="M43.1,29.1V28c-1.9-1.1-3.5-2.5-4.8-3.9c-1.5,1.7-3.4,3.2-5.9,4.5c1.7,0.9,3.7,1.6,5.8,2.1
						C40.1,30.3,41.7,29.8,43.1,29.1z"/>
				</g>
				<path class="st8" d="M41.1,34.3c-0.9-0.6-1.7-1.1-2.8-1.1s-1.9,0.5-2.8,1.1c-0.9,0.6-1.8,1.2-3.1,1.2s-2.2-0.6-3.1-1.2
					c-0.9-0.6-1.7-1.1-2.8-1.1s-1.9,0.5-2.8,1.1c-0.9,0.6-1.8,1.2-3.1,1.2s-2.2-0.6-3.1-1.2c-0.9-0.6-1.7-1.1-2.8-1.1
					s-1.9,0.5-2.8,1.1c-0.6,0.4-1.2,0.8-2,1c0,0.8,0.1,1.8,0.3,2.9c0.5-0.2,1-0.5,1.5-0.8c0.9-0.6,1.8-1.1,3-1.1s2.1,0.6,3,1.1
					c0.9,0.6,1.8,1.1,2.9,1.1c1.2,0,2-0.5,2.9-1.1s1.8-1.1,3-1.1s2.1,0.6,3,1.1c0.9,0.6,1.8,1.1,2.9,1.1c1.2,0,2-0.5,2.9-1.1
					s1.8-1.1,3-1.1s2.1,0.6,3,1.1c0.5,0.3,0.9,0.6,1.5,0.8c0.2-1.1,0.3-2,0.3-2.9C42.4,35.1,41.7,34.7,41.1,34.3z"/>
			</g>
			<g>
				<path class="st9" d="M28.3,55.2v-1.3l-1.5,1.5l-1.3-1.3v-2l1.3,1.3l1.5-1.5v-2.2l-1.5,1.5l-1.3-1.3v-2.1l1.3,1.3l1.5-1.5v-2.3
					l-1.5,1.5l-1.3-1.3v-1.9l1.3,1.2l2.2-2.1l-2.3-2l-2.6,2.2v11.8c1.2,0.6,2.1,1,2.6,1.1C27,55.8,27.6,55.5,28.3,55.2z"/>
				<path class="st9" d="M22.4,49.9l-1.5,1.6l-1.3-1.3v-2.1l1.3,1.3l1.5-1.6v-2.4l-1.5,1.5l-1.3-1.3v-2.1l1.3,1.2l2.2-2.1l-2.3-2
					l-2.6,2.2V51c1.5,1.1,3,2.1,4.2,2.8L22.4,49.9L22.4,49.9z"/>
				<path class="st9" d="M32.6,44.8l2.2-2.1l-2.3-2l-2.6,2.2v11.4c1.2-0.7,2.7-1.5,4.2-2.6v-1.8l-1.5,1.6l-1.3-1.3v-2.1l1.3,1.3
					l1.5-1.6v-2.4l-1.5,1.5l-1.3-1.3v-2.1L32.6,44.8z"/>
				<path class="st9" d="M38.5,44.8l2.2-2.1l-2.3-2l-2.6,2.2v7.6c0.3-0.2,0.6-0.5,0.9-0.7c1.4-1.2,2.5-2.6,3.4-4v-0.3L38.6,47
					l-1.3-1.3v-2.1L38.5,44.8z"/>
				<path class="st9" d="M15,44.8l2.2-2.1l-2.3-2l-2.6,2.2v1.3c1,2,2.3,3.9,4.2,5.6v-4.3L15,47l-1.3-1.3v-2.1L15,44.8z"/>
			</g>
		</g>
	</g>
</g>
</svg>
